<svg width="32" height="32" viewBox="0 0 32 32" fill="none" xmlns="http://www.w3.org/2000/svg">
<g clip-path="url(#clip0_168_5950)">
<mask id="mask0_168_5950" style="mask-type:alpha" maskUnits="userSpaceOnUse" x="2" y="2" width="28" height="28">
<circle cx="15.9998" cy="16.0001" r="13.3333" fill="#E51D3B"/>
</mask>
<g mask="url(#mask0_168_5950)">
</g>
<g clip-path="url(#clip1_168_5950)">
<path d="M21.7939 22.2101H22.7671C23.0252 22.2101 23.2727 22.1023 23.4552 21.9105C23.6377 21.7186 23.7402 21.4584 23.7402 21.187V10.9562C23.7402 10.8218 23.7151 10.6888 23.6662 10.5647C23.6173 10.4405 23.5456 10.3278 23.4552 10.2328C23.3648 10.1378 23.2576 10.0624 23.1395 10.011C23.0214 9.95957 22.8949 9.93311 22.7671 9.93311C22.6393 9.93311 22.5127 9.95957 22.3947 10.011C22.2766 10.0624 22.1693 10.1378 22.0789 10.2328C21.9886 10.3278 21.9169 10.4405 21.868 10.5647C21.8191 10.6888 21.7939 10.8218 21.7939 10.9562V22.2101Z" fill="#D54C3F"/>
<path d="M10.1157 22.2101H9.14256C8.88447 22.2101 8.63694 22.1023 8.45444 21.9105C8.27194 21.7186 8.16941 21.4584 8.16941 21.187V10.9562C8.16941 10.6849 8.27194 10.4246 8.45444 10.2328C8.63694 10.0409 8.88447 9.93311 9.14256 9.93311C9.40066 9.93311 9.64819 10.0409 9.83069 10.2328C10.0132 10.4246 10.1157 10.6849 10.1157 10.9562V22.2101Z" fill="#B63524"/>
<path d="M8.58537 11.7951C8.48058 11.7181 8.39123 11.6202 8.32242 11.507C8.25361 11.3937 8.20669 11.2674 8.18434 11.1351C8.16199 11.0027 8.16464 10.8671 8.19215 10.7359C8.21966 10.6047 8.27149 10.4804 8.34468 10.3702C8.41786 10.2601 8.51097 10.1661 8.61869 10.0938C8.72641 10.0215 8.84662 9.97213 8.97247 9.94863C9.09832 9.92513 9.22734 9.92793 9.35217 9.95685C9.47699 9.98577 9.59517 10.0403 9.69996 10.1172L15.9541 14.9042L15.9548 14.9045L15.9554 14.9042L22.2096 10.1172C22.4212 9.96181 22.6829 9.90118 22.9371 9.94863C23.1913 9.99609 23.4171 10.1477 23.5649 10.3702C23.7127 10.5927 23.7704 10.8678 23.7252 11.1351C23.6801 11.4023 23.5358 11.6397 23.3242 11.7951L23.3501 11.7749L15.9548 17.4357L8.58537 11.7951ZM8.5591 11.7749L15.9548 17.4357L8.5591 11.7749Z" fill="#DE5145"/>
<path d="M9.14287 9.93311C9.35016 9.93311 9.54252 10.0013 9.70017 10.1173L15.9543 14.9043L15.955 14.9046L15.9556 14.9043L22.2098 10.1173C22.3731 9.99708 22.5677 9.93278 22.7671 9.93311H9.14287Z" fill="#EFEFEF"/>
<path d="M21.7933 13.4076L23.4334 11.6997L23.4341 11.7011C23.3997 11.7352 23.363 11.7665 23.3241 11.7952L23.3501 11.7751L21.793 12.967L21.7933 13.4199" fill="#C64132"/>
<path d="M17.0359 18.3194L21.7939 22.2102L21.7936 13.365L17.0368 18.3181" fill="#E3E3E3"/>
<path d="M17.0357 18.3192L15.9548 17.4356L21.7935 12.9668V13.3648L17.0367 18.3179L17.0357 18.3192Z" fill="url(#paint0_linear_168_5950)"/>
<path d="M13.3399 22.2101H10.1158V12.9666L15.9548 17.4357L17.0366 18.318L13.3399 22.2101Z" fill="url(#paint1_linear_168_5950)"/>
</g>
</g>
<defs>
<linearGradient id="paint0_linear_168_5950" x1="21.7935" y1="15.6432" x2="15.9548" y2="15.6432" gradientUnits="userSpaceOnUse">
<stop stop-color="#C8C8C8"/>
<stop offset="1" stop-color="#CDCDCD"/>
</linearGradient>
<linearGradient id="paint1_linear_168_5950" x1="17.0366" y1="17.5882" x2="10.1158" y2="17.5882" gradientUnits="userSpaceOnUse">
<stop stop-color="#D9D9D9"/>
<stop offset="1" stop-color="#E2E2E2"/>
</linearGradient>
<clipPath id="clip0_168_5950">
<rect x="2.6665" y="2.66675" width="26.6667" height="26.6667" rx="6" fill="white"/>
</clipPath>
<clipPath id="clip1_168_5950">
<rect width="21.1872" height="12.4201" fill="white" transform="matrix(-1 0 0 1 26.5933 9.79004)"/>
</clipPath>
</defs>
</svg>
