<svg width="32" height="32" viewBox="0 0 32 32" fill="none" xmlns="http://www.w3.org/2000/svg">
<circle cx="16" cy="16" r="16" fill="white"/>
<mask id="mask0_168_5914" style="mask-type:alpha" maskUnits="userSpaceOnUse" x="0" y="0" width="32" height="32">
<circle cx="16" cy="16" r="16" fill="#242424"/>
</mask>
<g mask="url(#mask0_168_5914)">
<circle cx="16.0001" cy="16.0001" r="12.0548" fill="#3F0F3F"/>
<path fill-rule="evenodd" clip-rule="evenodd" d="M12.2739 18.2298C12.2739 17.3588 12.9582 16.6577 13.8082 16.6577C14.6581 16.6577 15.3424 17.3588 15.3424 18.2298V22.0994C15.3424 22.9703 14.6581 23.6714 13.8082 23.6714C12.9582 23.6714 12.2739 22.9703 12.2739 22.0994V18.2298Z" fill="#E01E5A"/>
<path fill-rule="evenodd" clip-rule="evenodd" d="M18.2292 19.7262C17.3583 19.7262 16.6572 19.0419 16.6572 18.192C16.6572 17.342 17.3583 16.6577 18.2292 16.6577H22.0989C22.9698 16.6577 23.6709 17.342 23.6709 18.192C23.6709 19.0419 22.9698 19.7262 22.0989 19.7262H18.2292Z" fill="#ECB22D"/>
<path fill-rule="evenodd" clip-rule="evenodd" d="M16.6572 9.90087C16.6572 9.02996 17.3415 8.32886 18.1915 8.32886C19.0414 8.32886 19.7257 9.02996 19.7257 9.90087V13.7705C19.7257 14.6415 19.0414 15.3426 18.1915 15.3426C17.3415 15.3426 16.6572 14.6415 16.6572 13.7705V9.90087Z" fill="#2FB67C"/>
<path fill-rule="evenodd" clip-rule="evenodd" d="M9.90063 15.3427C9.02971 15.3427 8.32861 14.6584 8.32861 13.8084C8.32861 12.9584 9.02971 12.2742 9.90063 12.2742H13.7703C14.6412 12.2742 15.3423 12.9584 15.3423 13.8084C15.3423 14.6584 14.6412 15.3427 13.7703 15.3427H9.90063Z" fill="#36C5F1"/>
<path fill-rule="evenodd" clip-rule="evenodd" d="M16.6572 22.137C16.6572 22.987 17.3415 23.6713 18.1915 23.6713C19.0414 23.6713 19.7257 22.987 19.7257 22.137C19.7257 21.2871 19.0414 20.6028 18.1915 20.6028H16.6572V22.137Z" fill="#ECB22D"/>
<path fill-rule="evenodd" clip-rule="evenodd" d="M22.1368 15.3427H20.6025V13.8084C20.6025 12.9584 21.2868 12.2742 22.1368 12.2742C22.9868 12.2742 23.671 12.9584 23.671 13.8084C23.671 14.6584 22.9868 15.3427 22.1368 15.3427Z" fill="#2FB67C"/>
<path fill-rule="evenodd" clip-rule="evenodd" d="M9.86286 16.6577H11.3971V18.192C11.3971 19.0419 10.7128 19.7262 9.86286 19.7262C9.01289 19.7262 8.32861 19.0419 8.32861 18.192C8.32861 17.342 9.01289 16.6577 9.86286 16.6577Z" fill="#E01E5A"/>
<path fill-rule="evenodd" clip-rule="evenodd" d="M15.3424 9.8631V11.3974H13.8082C12.9582 11.3974 12.2739 10.7131 12.2739 9.8631C12.2739 9.01313 12.9582 8.32886 13.8082 8.32886C14.6581 8.32886 15.3424 9.01313 15.3424 9.8631Z" fill="#36C5F1"/>
</g>
</svg>
