<svg width="6" height="8" viewBox="0 0 6 8" fill="none" xmlns="http://www.w3.org/2000/svg">
<path fill-rule="evenodd" clip-rule="evenodd" d="M0.834388 7.7656C0.684411 7.61557 0.600159 7.41213 0.600159 7.2C0.600159 6.98786 0.684411 6.78442 0.834388 6.6344L3.46879 4L0.834388 1.3656C0.688662 1.21471 0.608026 1.01263 0.609848 0.802875C0.611671 0.593118 0.695806 0.392468 0.844133 0.244141C0.992459 0.095815 1.19311 0.0116796 1.40287 0.0098569C1.61262 0.00803417 1.81471 0.08867 1.96559 0.234396L5.16559 3.4344C5.31556 3.58442 5.39982 3.78786 5.39982 4C5.39982 4.21213 5.31556 4.41557 5.16559 4.5656L1.96559 7.7656C1.81557 7.91557 1.61212 7.99983 1.39999 7.99983C1.18786 7.99983 0.98441 7.91557 0.834388 7.7656Z" fill="#111827"/>
</svg>
