<svg width="20" height="20" viewBox="0 0 20 20" fill="none" xmlns="http://www.w3.org/2000/svg">
<path fill-rule="evenodd" clip-rule="evenodd" d="M13.1029 3.50334C14.0401 2.56608 15.5596 2.56608 16.4969 3.50334C17.4341 4.44058 17.4341 5.96018 16.4969 6.89744L12.8969 10.4974C11.9596 11.4347 10.4401 11.4347 9.50282 10.4974C9.03419 10.0288 8.2744 10.0288 7.80577 10.4974C7.33714 10.966 7.33714 11.7259 7.80577 12.1945C9.68028 14.069 12.7195 14.069 14.594 12.1945L18.194 8.5945C20.0685 6.71998 20.0685 3.68079 18.194 1.80627C16.3195 -0.0682363 13.2803 -0.0682363 11.4058 1.80627L9.60577 3.60627C9.13714 4.07491 9.13714 4.8347 9.60577 5.30334C10.0744 5.77196 10.8341 5.77196 11.3029 5.30334L13.1029 3.50334ZM7.10285 9.50333C8.0401 8.56608 9.55969 8.56608 10.4969 9.50333C10.9655 9.97196 11.7254 9.97196 12.194 9.50333C12.6627 9.0347 12.6627 8.27491 12.194 7.80627C10.3195 5.93176 7.2803 5.93176 5.40578 7.80627L1.80578 11.4063C-0.0687246 13.2808 -0.0687246 16.3199 1.80578 18.1945C3.6803 20.069 6.7195 20.069 8.59402 18.1945L10.394 16.3945C10.8627 15.9259 10.8627 15.166 10.394 14.6974C9.92538 14.2288 9.16559 14.2288 8.69695 14.6974L6.89695 16.4974C5.95969 17.4347 4.44011 17.4347 3.50285 16.4974C2.56559 15.5602 2.56559 14.0405 3.50285 13.1033L7.10285 9.50333Z" fill="#6B7280"/>
</svg>
