<svg width="6" height="20" viewBox="0 0 6 20" fill="none" xmlns="http://www.w3.org/2000/svg">
<path d="M3.00001 5.19999C2.36349 5.19999 1.75304 4.94714 1.30295 4.49705C0.852863 4.04696 0.600006 3.43651 0.600006 2.79999C0.600006 2.16347 0.852863 1.55302 1.30295 1.10294C1.75304 0.65285 2.36349 0.399994 3.00001 0.399994C3.63653 0.399994 4.24697 0.65285 4.69706 1.10294C5.14715 1.55302 5.40001 2.16347 5.40001 2.79999C5.40001 3.43651 5.14715 4.04696 4.69706 4.49705C4.24697 4.94714 3.63653 5.19999 3.00001 5.19999ZM3.00001 12.4C2.36349 12.4 1.75304 12.1471 1.30295 11.6971C0.852863 11.247 0.600006 10.6365 0.600006 9.99999C0.600006 9.36347 0.852863 8.75303 1.30295 8.30294C1.75304 7.85285 2.36349 7.59999 3.00001 7.59999C3.63653 7.59999 4.24697 7.85285 4.69706 8.30294C5.14715 8.75303 5.40001 9.36347 5.40001 9.99999C5.40001 10.6365 5.14715 11.247 4.69706 11.6971C4.24697 12.1471 3.63653 12.4 3.00001 12.4ZM3.00001 19.6C2.36349 19.6 1.75304 19.3471 1.30295 18.8971C0.852863 18.447 0.600006 17.8365 0.600006 17.2C0.600006 16.5635 0.852863 15.953 1.30295 15.5029C1.75304 15.0529 2.36349 14.8 3.00001 14.8C3.63653 14.8 4.24697 15.0529 4.69706 15.5029C5.14715 15.953 5.40001 16.5635 5.40001 17.2C5.40001 17.8365 5.14715 18.447 4.69706 18.8971C4.24697 19.3471 3.63653 19.6 3.00001 19.6Z" fill="#D1D5DB"/>
</svg>
